<svg xmlns="http://www.w3.org/2000/svg" viewBox="0 0 24 24" width="40px" height="40px" fill="#ffffff">
  <path d="M12 0C8.7 0 8.3 0 7.1.1 6 0 4.8.2 3.7.7c-.9.4-1.7 1-2.4 1.7-.7.7-1.3 1.5-1.7 2.4-.5 1-.7 2.2-.7 3.3C0 8.3 0 8.7.1 10 0 11.2 0 12.8.1 14c.1 1.2.2 2.5.7 3.7.4.9 1 1.7 1.7 2.4.7.7 1.5 1.3 2.4 1.7 1.2.5 2.5.7 3.7.7 1.2.1 1.6.1 3.2.1s2-.1 3.2-.1c1.2-.1 2.5-.2 3.7-.7.9-.4 1.7-1 2.4-1.7.7-.7 1.3-1.5 1.7-2.4.5-1.2.7-2.5.7-3.7.1-1.2.1-1.6.1-3.2s0-2-.1-3.2c-.1-1.2-.2-2.5-.7-3.7-.4-.9-1-1.7-1.7-2.4-.7-.7-1.5-1.3-2.4-1.7C17.5.2 16.2 0 15 .1 13.7 0 13.3 0 12 0zM12 2c1.2 0 1.5.1 3.1.1 1.5 0 2.3.1 3 .5.6.3 1.1.7 1.5 1.1.4.4.8.9 1.1 1.5.4.7.5 1.5.5 3 .1 1.6.1 1.9.1 3.1s0 1.5-.1 3.1c0 1.5-.1 2.3-.5 3-.3.6-.7 1.1-1.1 1.5-.4.4-.9.8-1.5 1.1-.7.4-1.5.5-3 .5-1.6.1-1.9.1-3.1.1s-1.5 0-3.1-.1c-1.5 0-2.3-.1-3-.5-.6-.3-1.1-.7-1.5-1.1-.4-.4-.8-.9-1.1-1.5-.4-.7-.5-1.5-.5-3 0-1.6-.1-1.9-.1-3.1s0-1.5.1-3.1c0-1.5.1-2.3.5-3 .3-.6.7-1.1 1.1-1.5.4-.4.9-.8 1.5-1.1.7-.4 1.5-.5 3-.5 1.6-.1 1.9-.1 3.1-.1zM12 5.8c-3.4 0-6.2 2.8-6.2 6.2s2.8 6.2 6.2 6.2 6.2-2.8 6.2-6.2-2.8-6.2-6.2-6.2zm0 10.1c-2.2 0-3.9-1.8-3.9-3.9s1.8-3.9 3.9-3.9 3.9 1.8 3.9 3.9-1.8 3.9-3.9 3.9zm4.9-10.7c-.8 0-1.4-.6-1.4-1.4s.6-1.4 1.4-1.4 1.4.6 1.4 1.4-.6 1.4-1.4 1.4z"/>
</svg>
